<svg xmlns="http://www.w3.org/2000/svg" viewBox="0 0 1000 250" width="100%" height="100%">
  <defs>
    <filter id="glow">
      <feGaussianBlur stdDeviation="2" result="coloredBlur"/>
      <feMerge>
        <feMergeNode in="coloredBlur"/>
        <feMergeNode in="SourceGraphic"/>
      </feMerge>
    </filter>
    <filter id="glow-heavy">
      <feGaussianBlur stdDeviation="4" result="coloredBlur"/>
      <feMerge>
        <feMergeNode in="coloredBlur"/>
        <feMergeNode in="SourceGraphic"/>
      </feMerge>
    </filter>
    
    <linearGradient id="sweepGrad" x1="100%" y1="0%" x2="0%" y2="100%">
      <stop offset="0%" stop-color="#3399ff" stop-opacity="0.6"/>
      <stop offset="100%" stop-color="#3399ff" stop-opacity="0"/>
    </linearGradient>

    <style>
      @keyframes sweep { 0% { transform: rotate(0deg); } 100% { transform: rotate(360deg); } }
      @keyframes blink { 0%, 100% { opacity: 1; } 50% { opacity: 0.1; } }
      @keyframes fadePing { 0% { opacity: 1; r: 1px; } 100% { opacity: 0; r: 8px; } }
      @keyframes bar1 { 0%, 100% { height: 10px; } 50% { height: 70px; } }
      @keyframes bar2 { 0%, 100% { height: 30px; } 50% { height: 110px; } }
      @keyframes bar3 { 0%, 100% { height: 5px; } 50% { height: 50px; } }
      @keyframes bar4 { 0%, 100% { height: 80px; } 50% { height: 20px; } }

      .radar-spin { transform-origin: 500px 125px; animation: sweep 4s infinite linear; }
      .on-air { animation: blink 2s infinite ease-in-out; }
      .ping { fill: none; stroke: #00ffff; stroke-width: 1.5; animation: fadePing 2s infinite ease-out; }
      .p1 { animation-delay: 0.2s; }
      .p2 { animation-delay: 1.5s; }
      .p3 { animation-delay: 2.8s; }

      .spec-bar { fill: #3399ff; opacity: 0.8; }
      .b1 { animation: bar1 1.2s infinite alternate ease-in-out; }
      .b2 { animation: bar2 0.8s infinite alternate ease-in-out; }
      .b3 { animation: bar3 1.5s infinite alternate ease-in-out; }
      .b4 { animation: bar4 0.9s infinite alternate ease-in-out; }
      .b5 { animation: bar1 1.1s infinite alternate-reverse ease-in-out; }
      .b6 { animation: bar2 1.4s infinite alternate-reverse ease-in-out; }
      .b7 { animation: bar4 1.3s infinite alternate ease-in-out; }

      .hud-text { font-family: 'Courier New', monospace; fill: #3399ff; font-size: 12px; }
      .hud-accent { fill: #00ffff; }
      .grid-line { stroke: #102542; stroke-width: 1; opacity: 0.5; }
    </style>
  </defs>

  <rect width="100%" height="100%" fill="#030407"/>
  
  <path d="M 15 35 L 15 15 L 35 15 M 965 15 L 985 15 L 985 35 M 985 215 L 985 235 L 965 235 M 35 235 L 15 235 L 15 215" fill="none" stroke="#3399ff" stroke-width="2" opacity="0.6"/>
  <rect x="20" y="20" width="960" height="210" fill="none" stroke="#102542" stroke-width="1"/>

  <g transform="translate(40, 35)">
    <line x1="0" y1="0" x2="220" y2="0" class="grid-line"/>
    <line x1="0" y1="40" x2="220" y2="40" class="grid-line"/>
    <line x1="0" y1="80" x2="220" y2="80" class="grid-line"/>
    <line x1="0" y1="120" x2="220" y2="120" class="grid-line"/>
    
    <g transform="scale(1, -1) translate(0, -120)">
      <rect x="5" y="0" width="4" height="20" class="spec-bar b1"/>
      <rect x="15" y="0" width="4" height="50" class="spec-bar b3"/>
      <rect x="25" y="0" width="4" height="100" class="spec-bar b2"/>
      <rect x="35" y="0" width="4" height="70" class="spec-bar b4"/>
      <rect x="45" y="0" width="4" height="110" class="spec-bar b6"/>
      <rect x="55" y="0" width="4" height="40" class="spec-bar b1"/>
      <rect x="65" y="0" width="4" height="90" class="spec-bar b2"/>
      <rect x="75" y="0" width="4" height="30" class="spec-bar b3"/>
      <rect x="85" y="0" width="4" height="80" class="spec-bar b5"/>
      <rect x="95" y="0" width="4" height="110" class="spec-bar b4"/>
      <rect x="105" y="0" width="4" height="60" class="spec-bar b7"/>
      <rect x="115" y="0" width="4" height="100" class="spec-bar b2"/>
      <rect x="125" y="0" width="4" height="20" class="spec-bar b1"/>
      <rect x="135" y="0" width="4" height="70" class="spec-bar b5"/>
      <rect x="145" y="0" width="4" height="90" class="spec-bar b6"/>
      <rect x="155" y="0" width="4" height="40" class="spec-bar b3"/>
      <rect x="165" y="0" width="4" height="80" class="spec-bar b7"/>
      <rect x="175" y="0" width="4" height="110" class="spec-bar b4"/>
      <rect x="185" y="0" width="4" height="50" class="spec-bar b1"/>
      <rect x="195" y="0" width="4" height="90" class="spec-bar b2"/>
      <rect x="205" y="0" width="4" height="30" class="spec-bar b3"/>
    </g>

    <rect x="0" y="140" width="220" height="40" fill="none" stroke="#1e4b85" stroke-width="1"/>
    <text x="10" y="156" class="hud-text">VFO A: <tspan class="hud-accent">14.280.00 MHz</tspan></text>
    <text x="10" y="172" class="hud-text">VFO B: <tspan class="hud-accent"> 7.030.00 MHz</tspan></text>
  </g>

  <g transform="translate(0, 0)">
    <circle cx="500" cy="125" r="110" fill="none" stroke="#102542" stroke-width="2"/>
    <circle cx="500" cy="125" r="75" fill="none" stroke="#102542" stroke-width="1"/>
    <circle cx="500" cy="125" r="40" fill="none" stroke="#102542" stroke-width="1"/>
    
    <line x1="390" y1="125" x2="610" y2="125" stroke="#102542" stroke-width="1"/>
    <line x1="500" y1="15" x2="500" y2="235" stroke="#102542" stroke-width="1"/>
    
    <text x="504" y="25" class="hud-text" font-size="9">15331km</text>

    <circle cx="540" cy="70" r="2" fill="#00ffff" filter="url(#glow)"/>
    <circle cx="540" cy="70" class="ping p1"/>
    
    <circle cx="440" cy="160" r="2" fill="#00ffff" filter="url(#glow)"/>
    <circle cx="440" cy="160" class="ping p2"/>
    
    <circle cx="560" cy="180" r="2" fill="#00ffff" filter="url(#glow)"/>
    <circle cx="560" cy="180" class="ping p3"/>

    <g class="radar-spin">
      <path d="M 500 125 L 500 15 A 110 110 0 0 1 577.7 47.2 Z" fill="url(#sweepGrad)"/>
      <line x1="500" y1="125" x2="500" y2="15" stroke="#00ffff" stroke-width="2" filter="url(#glow)"/>
    </g>

    <circle cx="500" cy="125" r="4" fill="#ffffff" filter="url(#glow-heavy)"/>
  </g>

  <g transform="translate(640, 35)">
    
    <rect x="0" y="0" width="80" height="80" fill="none" stroke="#1e4b85" stroke-width="1"/>
    <g transform="translate(40, 40)" class="on-air">
      <circle cx="0" cy="0" r="25" fill="none" stroke="#00ff00" stroke-width="2" filter="url(#glow)"/>
      <circle cx="0" cy="0" r="20" fill="#00ff00" opacity="0.1"/>
      <text x="0" y="4" fill="#00ff00" font-family="'Segoe UI', sans-serif" font-size="10" font-weight="bold" text-anchor="middle" letter-spacing="1">ON AIR</text>
    </g>

    <g transform="translate(320, 50)">
      <text x="0" y="0" fill="#ffffff" font-family="'Segoe UI', Tahoma, sans-serif" font-size="64" font-weight="900" text-anchor="end" letter-spacing="4" filter="url(#glow-heavy)">LZ1B0</text>
      <text x="-5" y="25" fill="#3399ff" font-family="'Courier New', monospace" font-size="14" font-weight="bold" text-anchor="end" letter-spacing="1">DEEP SPACE HF STATION</text>
      <text x="-5" y="45" fill="#00ffff" font-family="'Courier New', monospace" font-size="12" text-anchor="end" letter-spacing="2" opacity="0.8">LISTENING TO THE UNIVERSE</text>
    </g>

    <text x="0" y="110" class="hud-text" font-size="10" opacity="0.6" letter-spacing="1">
      <tspan x="0" dy="0">SYS: ONLINE</tspan>
      <tspan x="0" dy="15">PWR: 5W QRP</tspan>
      <tspan x="0" dy="15">ANT: 3M VERT</tspan>
      <tspan x="0" dy="15">LOC: KN12FQ</tspan>
      <tspan x="0" dy="15">SFI: MONITORING</tspan>
    </text>
  </g>

</svg>
