<svg xmlns="http://www.w3.org/2000/svg" viewBox="0 0 900 450" width="100%" height="100%">
  <defs>
    <filter id="glow">
      <feGaussianBlur stdDeviation="3" result="coloredBlur"/>
      <feMerge>
        <feMergeNode in="coloredBlur"/>
        <feMergeNode in="SourceGraphic"/>
      </feMerge>
    </filter>
    <filter id="glow-heavy">
      <feGaussianBlur stdDeviation="6" result="coloredBlur"/>
      <feMerge>
        <feMergeNode in="coloredBlur"/>
        <feMergeNode in="SourceGraphic"/>
      </feMerge>
    </filter>
    
    <linearGradient id="sweepGrad" x1="100%" y1="0%" x2="0%" y2="100%">
      <stop offset="0%" stop-color="#3399ff" stop-opacity="0.6"/>
      <stop offset="100%" stop-color="#3399ff" stop-opacity="0"/>
    </linearGradient>

    <style>
      @keyframes sweep { 0% { transform: rotate(0deg); } 100% { transform: rotate(360deg); } }
      @keyframes blink { 0%, 100% { opacity: 1; } 50% { opacity: 0.2; } }
      @keyframes fadePing { 0% { opacity: 1; r: 2px; } 100% { opacity: 0; r: 12px; } }
      @keyframes bar1 { 0%, 100% { height: 20px; } 50% { height: 120px; } }
      @keyframes bar2 { 0%, 100% { height: 50px; } 50% { height: 180px; } }
      @keyframes bar3 { 0%, 100% { height: 10px; } 50% { height: 80px; } }
      @keyframes bar4 { 0%, 100% { height: 90px; } 50% { height: 30px; } }
      @keyframes scrollBin { 0% { transform: translateY(0); } 100% { transform: translateY(-50px); } }

      .radar-spin { transform-origin: 450px 225px; animation: sweep 4s infinite linear; }
      .on-air { animation: blink 2s infinite ease-in-out; }
      .ping { fill: none; stroke: #00ffff; stroke-width: 2; animation: fadePing 2s infinite ease-out; }
      .p1 { animation-delay: 0.5s; }
      .p2 { animation-delay: 1.2s; }
      .p3 { animation-delay: 2.8s; }
      .p4 { animation-delay: 3.5s; }

      .spec-bar { fill: #3399ff; opacity: 0.8; }
      .b1 { animation: bar1 1.2s infinite alternate ease-in-out; }
      .b2 { animation: bar2 0.8s infinite alternate ease-in-out; }
      .b3 { animation: bar3 1.5s infinite alternate ease-in-out; }
      .b4 { animation: bar4 0.9s infinite alternate ease-in-out; }
      .b5 { animation: bar1 1.1s infinite alternate-reverse ease-in-out; }
      .b6 { animation: bar2 1.4s infinite alternate-reverse ease-in-out; }
      .b7 { animation: bar4 1.3s infinite alternate ease-in-out; }

      .grid-line { stroke: #102542; stroke-width: 1; }
      .hud-text { font-family: 'Courier New', monospace; fill: #3399ff; font-size: 14px; }
      .hud-accent { fill: #00ffff; }
    </style>
  </defs>

  <rect width="100%" height="100%" fill="#050a12"/>
  
  <path d="M 20 50 L 20 20 L 50 20 M 850 20 L 880 20 L 880 50 M 880 400 L 880 430 L 850 430 M 50 430 L 20 430 L 20 400" fill="none" stroke="#3399ff" stroke-width="2" opacity="0.7"/>
  <rect x="30" y="30" width="840" height="390" fill="none" stroke="#102542" stroke-width="1"/>

  <g transform="translate(50, 60)">
    <line x1="0" y1="0" x2="200" y2="0" class="grid-line" opacity="0.5"/>
    <line x1="0" y1="50" x2="200" y2="50" class="grid-line" opacity="0.5"/>
    <line x1="0" y1="100" x2="200" y2="100" class="grid-line" opacity="0.5"/>
    <line x1="0" y1="150" x2="200" y2="150" class="grid-line" opacity="0.5"/>
    <line x1="0" y1="200" x2="200" y2="200" class="grid-line" opacity="0.5"/>
    
    <g transform="scale(1, -1) translate(0, -200)">
      <rect x="10" y="0" width="4" height="20" class="spec-bar b1"/>
      <rect x="20" y="0" width="4" height="50" class="spec-bar b3"/>
      <rect x="30" y="0" width="4" height="120" class="spec-bar b2"/>
      <rect x="40" y="0" width="4" height="80" class="spec-bar b4"/>
      <rect x="50" y="0" width="4" height="150" class="spec-bar b6"/>
      <rect x="60" y="0" width="4" height="60" class="spec-bar b1"/>
      <rect x="70" y="0" width="4" height="180" class="spec-bar b2"/>
      <rect x="80" y="0" width="4" height="40" class="spec-bar b3"/>
      <rect x="90" y="0" width="4" height="110" class="spec-bar b5"/>
      <rect x="100" y="0" width="4" height="130" class="spec-bar b4"/>
      <rect x="110" y="0" width="4" height="90" class="spec-bar b7"/>
      <rect x="120" y="0" width="4" height="160" class="spec-bar b2"/>
      <rect x="130" y="0" width="4" height="30" class="spec-bar b1"/>
      <rect x="140" y="0" width="4" height="70" class="spec-bar b5"/>
      <rect x="150" y="0" width="4" height="140" class="spec-bar b6"/>
      <rect x="160" y="0" width="4" height="50" class="spec-bar b3"/>
      <rect x="170" y="0" width="4" height="100" class="spec-bar b7"/>
      <rect x="180" y="0" width="4" height="120" class="spec-bar b4"/>
    </g>

    <rect x="0" y="240" width="200" height="70" fill="none" stroke="#1e4b85" stroke-width="1"/>
    <text x="15" y="265" class="hud-text">VFO A: <tspan class="hud-accent">14.280.00 MHz</tspan></text>
    <text x="15" y="295" class="hud-text">VFO B: <tspan class="hud-accent"> 7.030.00 MHz</tspan></text>
  </g>

  <g transform="translate(0, 0)">
    <circle cx="450" cy="225" r="180" fill="none" stroke="#102542" stroke-width="2"/>
    <circle cx="450" cy="225" r="135" fill="none" stroke="#102542" stroke-width="1"/>
    <circle cx="450" cy="225" r="90" fill="none" stroke="#102542" stroke-width="1"/>
    <circle cx="450" cy="225" r="45" fill="none" stroke="#102542" stroke-width="1"/>
    
    <line x1="270" y1="225" x2="630" y2="225" stroke="#102542" stroke-width="1"/>
    <line x1="450" y1="45" x2="450" y2="405" stroke="#102542" stroke-width="1"/>
    
    <g fill="#3399ff" font-family="'Courier New', monospace" font-size="10" text-anchor="middle">
      <text x="450" y="35">000</text>
      <text x="645" y="230">090</text>
      <text x="450" y="420">180</text>
      <text x="250" y="230">270</text>
    </g>

    <text x="455" y="60" class="hud-text" font-size="10">15331km</text>

    <circle cx="530" cy="120" r="3" fill="#00ffff" filter="url(#glow)"/>
    <circle cx="530" cy="120" class="ping p1"/>
    
    <circle cx="360" cy="300" r="3" fill="#00ffff" filter="url(#glow)"/>
    <circle cx="360" cy="300" class="ping p2"/>
    
    <circle cx="600" cy="190" r="3" fill="#00ffff" filter="url(#glow)"/>
    <circle cx="600" cy="190" class="ping p3"/>

    <circle cx="380" cy="100" r="3" fill="#00ffff" filter="url(#glow)"/>
    <circle cx="380" cy="100" class="ping p4"/>

    <g class="radar-spin">
      <path d="M 450 225 L 450 45 A 180 180 0 0 1 577 97 Z" fill="url(#sweepGrad)"/>
      <line x1="450" y1="225" x2="450" y2="45" stroke="#00ffff" stroke-width="2" filter="url(#glow)"/>
    </g>

    <circle cx="450" cy="225" r="5" fill="#ffffff" filter="url(#glow-heavy)"/>
  </g>

  <g transform="translate(680, 60)">
    
    <rect x="0" y="0" width="160" height="120" fill="none" stroke="#1e4b85" stroke-width="1"/>
    <text x="80" y="25" class="hud-text" text-anchor="middle" font-weight="bold">STATUS</text>
    <line x1="0" y1="35" x2="160" y2="35" stroke="#1e4b85" stroke-width="1"/>
    
    <g transform="translate(80, 75)" class="on-air">
      <circle cx="0" cy="0" r="30" fill="none" stroke="#00ff00" stroke-width="3" filter="url(#glow)"/>
      <circle cx="0" cy="0" r="24" fill="#00ff00" opacity="0.1"/>
      <text x="0" y="5" fill="#00ff00" font-family="'Segoe UI', sans-serif" font-size="14" font-weight="bold" text-anchor="middle" letter-spacing="1">ON AIR</text>
    </g>

    <g transform="translate(0, 140)">
      <clipPath id="dataClip">
        <rect x="0" y="0" width="160" height="100"/>
      </clipPath>
      <g clip-path="url(#dataClip)">
        <text x="160" y="15" class="hud-text" font-size="10" opacity="0.6" text-anchor="end" letter-spacing="2">
          <tspan x="160" dy="0">01001100 01011010</tspan>
          <tspan x="160" dy="15">00110001 01000010</tspan>
          <tspan x="160" dy="15">01001111 00100000</tspan>
          <tspan x="160" dy="15">QSO SYNC ESTAB.</tspan>
          <tspan x="160" dy="15">11010010 00101111</tspan>
          <tspan x="160" dy="15">TX PWR: 5 WATTS</tspan>
        </text>
      </g>
    </g>
  </g>

  <g transform="translate(850, 360)">
    <text x="0" y="0" fill="#ffffff" font-family="'Segoe UI', Tahoma, sans-serif" font-size="64" font-weight="900" text-anchor="end" letter-spacing="4" filter="url(#glow-heavy)">LZ1B0</text>
    
    <text x="-5" y="25" fill="#3399ff" font-family="'Courier New', monospace" font-size="16" font-weight="bold" text-anchor="end" letter-spacing="1">DEEP SPACE HF STATION</text>
    <text x="-5" y="45" fill="#00ffff" font-family="'Courier New', monospace" font-size="14" text-anchor="end" letter-spacing="2" opacity="0.8">LISTENING TO THE UNIVERSE</text>
  </g>

</svg>
